inDegrees=yes
name=ik_S42_A10_T02
DataType=double
version=3
OpenSimVersion=4.3-2021-08-27-4bc7ad9
endheader
time	pelvis_tilt	pelvis_list	pelvis_rotation	pelvis_tx	pelvis_ty	pelvis_tz	hip_flexion_r	hip_adduction_r	hip_rotation_r	knee_angle_r	knee_angle_r_beta	ankle_angle_r	subtalar_angle_r	mtp_angle_r	hip_flexion_l	hip_adduction_l	hip_rotation_l	knee_angle_l	knee_angle_l_beta	ankle_angle_l	subtalar_angle_l	mtp_angle_l	lumbar_extension	lumbar_bending	lumbar_rotation	arm_flex_r	arm_add_r	arm_rot_r	elbow_flex_r	pro_sup_r	wrist_flex_r	wrist_dev_r	arm_flex_l	arm_add_l	arm_rot_l	elbow_flex_l	pro_sup_l	wrist_flex_l	wrist_dev_l
0	0	0	0	0	0.9399999999999999	0	0	0	0	0	0	0	0	0	0	0	0	0	0	0	0	0	0	0	0	0	0	0	0	89.99999999963507	0	0	0	0	0	0	89.99999999869995	0	0
0.02	-1.903745605785956	-0.4255695663532922	21.24988735598746	0	0.9399999999999999	0	2.235834267257098	-1.045547571049702	-0.7518440820224499	3.471489944216924	0.06058892947645961	0	0	0	2.235834267257098	-1.045547571049702	-0.7518440820224499	3.471489944216924	0.06058892947645961	0	0	0	-1.166634332758719	0.7946703988713458	6.265006062913855	22.45532366639258	-5.831265786216049	15.71743214913187	28.70953687606253	66.88972113111546	0	0	13.22747942501294	4.31162072859979	-3.913273938306917	18.14268072151794	83.69161720544254	0	0
0.04	-1.895946372672908	-0.4168982728998955	21.30529660754085	0	0.9399999999999999	0	2.252893196394578	-1.054250646128387	-0.757620538514011	3.496221675731141	0.06102057962110193	0	0	0	2.252893196394578	-1.054250646128387	-0.757620538514011	3.496221675731141	0.06102057962110193	0	0	0	-1.156859895163162	0.8011466027923597	6.204558254741809	22.5604749237852	-5.667042768733086	15.84262531447367	28.2774218989601	66.71019922894354	0	0	13.22396645622412	4.36580950539428	-3.772361200757258	18.04718709005693	83.21502931814661	0	0
0.06	-1.93203519295245	-0.451203316418595	21.35460873420632	0	0.9399999999999999	0	2.271612572100863	-1.063847690044485	-0.7639653581879333	3.523352749532119	0.06149410618853058	0	0	0	2.271612572100863	-1.063847690044485	-0.7639653581879333	3.523352749532119	0.06149410618853058	0	0	0	-1.203147660061688	0.7819307578320269	6.213090482842226	22.79248053129786	-5.459393314930681	16.01403117075468	27.71830248036371	66.33588425735485	0	0	13.29212304712241	4.365616812622612	-3.404860152905642	18.2154497394614	82.91392810330051	0	0
0.08	-2.05736396726016	-0.5245150298910247	21.46838442019809	0	0.9399999999999999	0	2.292488130007011	-1.074677009415695	-0.7710565901878969	3.553623505237439	0.06202243054265526	0	0	0	2.292488130007011	-1.074677009415695	-0.7710565901878969	3.553623505237439	0.06202243054265526	0	0	0	-1.3472409866665	0.7604044146511723	6.169409782780193	23.14801298391296	-5.240177935219492	16.33438687337042	27.65944309047616	66.1022819490168	0	0	13.53144210352864	4.45087230331735	-2.989821405627806	18.00303698059673	82.27605596069402	0	0
0.1	-2.09263459865398	-0.5414331421209029	21.57470771623924	0	0.9399999999999999	0	2.319479069840896	-1.088683998479609	-0.7802278294154262	3.592694468659096	0.06270434749628945	0	0	0	2.319479069840896	-1.088683998479609	-0.7802278294154262	3.592694468659096	0.06270434749628945	0	0	0	-1.387210851280291	0.7594134463948762	6.092866746866829	23.27489558700961	-5.013100745674616	16.88603692939836	27.68480180534031	65.60283429743831	0	0	13.55521788631613	4.538749605393812	-2.558246944840134	17.98075345111186	81.94731070591304	0	0
0.12	-2.102570423276266	-0.5400945571900945	21.66547237939421	0	0.9399999999999999	0	2.35795286336607	-1.10867080807386	-0.7933072068714488	3.648265299644035	0.06367424146504592	0	0	0	2.35795286336607	-1.10867080807386	-0.7933072068714488	3.648265299644035	0.06367424146504592	0	0	0	-1.396838708664024	0.7661070785543307	6.007550728127834	23.28129433219469	-4.77864106245725	17.44818308085968	26.20847255551401	65.78457338248521	0	0	13.51196628509731	4.636977913168961	-2.120980176318847	17.90721129295245	81.83636871510684	0	0
0.14	-2.135265652955641	-0.5458337710268525	21.78921576280627	0	0.9399999999999999	0	2.377830433222581	-1.118962724904655	-0.8000625054466827	3.67690375879235	0.0641740768698819	0	0	0	2.377830433222581	-1.118962724904655	-0.8000625054466827	3.67690375879235	0.0641740768698819	0	0	0	-1.43042161762625	0.7758083080450132	5.890461532174958	23.43680325076796	-4.53566913471038	18.21736626851532	25.68791317996403	65.44927550885528	0	0	13.51554708895815	4.740133763611078	-1.677050014618881	17.79003758406568	81.63936232965928	0	0
0.16	-2.141102151929248	-0.5499691195098222	21.79316836166399	0	0.9399999999999999	0	2.406719939475108	-1.133896463312838	-0.8098799650223213	3.718443173969879	0.06489907643408269	0	0	0	2.406719939475108	-1.133896463312838	-0.8098799650223213	3.718443173969879	0.06489907643408269	0	0	0	-1.437635651188596	0.773936874927916	5.8909667871382	23.44495484525174	-4.497101899435079	18.1519968893923	24.94153711762739	65.79312141144111	0	0	13.53929660421711	4.707571664679717	-1.709551013400683	17.43668290638913	81.76390580535914	0	0
0.18	-2.167725473329959	-0.5636422847210534	21.93011421941427	0	0.9399999999999999	0	2.427439952700826	-1.14462386174657	-0.8169246669196044	3.748192086896414	0.06541829291353984	0	0	0	2.427439952700826	-1.14462386174657	-0.8169246669196044	3.748192086896414	0.06541829291353984	0	0	0	-1.468680589974774	0.7748789596189647	5.746263681845462	23.65469309614454	-4.162879838914235	19.01251280504787	24.24111691885964	65.34502190493538	0	0	13.52053048587095	4.809235105956194	-1.26037275799188	17.48445426010159	81.38015906945913	0	0
0.2	-2.308526072177674	-0.6434761315156613	21.87971936328322	0	0.9399999999999999	0	2.449433365582698	-1.156052840450498	-0.8244089416228044	3.779734116591688	0.06596880518448418	0	0	0	2.449433365582698	-1.156052840450498	-0.8244089416228044	3.779734116591688	0.06596880518448418	0	0	0	-1.628964988196763	0.752063852575747	5.795344761232279	23.95546515418153	-4.131235306212029	18.95532028644876	23.54478671160855	65.60744048899198	0	0	13.76654635880088	4.897943562805238	-0.8749966571794532	17.06147384080311	81.18429392466366	0	0
0.22	-2.464968862963555	-0.7386108132397499	22.10081604693039	0	0.9399999999999999	0	2.490581195599057	-1.177443556643266	-0.8384165135329662	3.8386170382895	0.06699650604130501	0	0	0	2.490581195599057	-1.177443556643266	-0.8384165135329662	3.8386170382895	0.06699650604130501	0	0	0	-1.812483865114511	0.7291570311566303	5.558000697949455	24.4118991706922	-3.372558019133069	20.7819194250352	23.28148994736515	64.18586166278104	0	0	14.07941533970872	4.945834871705344	-0.5567751645756578	16.94208023488612	80.99092463395533	0	0
0.24	-2.450401621059253	-0.7388472841240101	22.30550020988067	0	0.9399999999999999	0	2.515988623186751	-1.190623124865363	-0.8470650734140851	3.87487941504401	0.06762940391026988	0	0	0	2.515988623186751	-1.190623124865363	-0.8470650734140851	3.87487941504401	0.06762940391026988	0	0	0	-1.801708619434277	0.7317439280308352	5.341842530331334	24.20664967722625	-2.669289843949211	22.3473374280354	22.82641181627564	63.09832165329229	0	0	14.00824167963948	4.968842694088938	-0.2194659059495306	16.10749730036991	81.09124014609844	0	0
0.26	-2.645654557234125	-0.8348283965878929	22.39799302946886	0	0.9399999999999999	0	2.541657747181819	-1.203905140027494	-0.8558006604268189	3.911440594364984	0.06826751686783293	0	0	0	2.541657747181819	-1.203905140027494	-0.8558006604268189	3.911440594364984	0.06826751686783293	0	0	0	-2.020533199613193	0.7203095748384484	5.262800542185857	24.51099303079111	-2.295483545243314	23.15162333708378	22.39045340840078	62.42437957362882	0	0	14.36263530439566	4.986410106699638	0.4132434989604313	16.05179246841701	80.69139668931827	0	0
0.28	-2.873390365917595	-0.9466203995874949	22.37913303992069	0	0.9399999999999999	0	2.562964177946875	-1.21490656089943	-0.8630500859138867	3.941737410687979	0.06879629606554115	0	0	0	2.562964177946875	-1.21490656089943	-0.8630500859138867	3.941737410687979	0.06879629606554115	0	0	0	-2.273300487265224	0.7023496764558269	5.291828191458833	24.91049295160987	-1.854277832664592	23.9053200965105	21.85946252920409	61.52654306930959	0	0	14.68960701103982	4.987539150296446	1.388024244967821	15.85297209880135	79.86275745801623	0	0
0.3	-3.012632018862885	-0.9934367800578014	22.26837755593089	0	0.9399999999999999	0	2.595443389872322	-1.23169991064154	-0.8741067962459491	3.987836718483627	0.0696008807694655	0	0	0	2.595443389872322	-1.23169991064154	-0.8741067962459491	3.987836718483627	0.0696008807694655	0	0	0	-2.417718459730398	0.7064323367338428	5.406016564173849	25.07357240081784	-1.494363583932707	24.59421017418628	21.38264110282578	60.77166237619141	0	0	14.81003392080252	5.060901781807933	2.549294402419524	15.8262993507733	78.65293815683771	0	0
0.32	-3.169819896659686	-1.045168019216483	22.15864298300039	0	0.9399999999999999	0	2.643695180444308	-1.256686819706884	-0.8905439715831124	4.056141455525842	0.07079302332556109	0	0	0	2.643695180444308	-1.256686819706884	-0.8905439715831124	4.056141455525842	0.07079302332556109	0	0	0	-2.580042626546108	0.7087355905179	5.58556675059232	25.26534984708075	-1.213962023284122	25.09343550737556	20.59760236057786	59.71656825728488	0	0	14.95435830523222	5.216235870586222	3.800617426158913	15.78235543673212	77.46874532366304	0	0
